<svg width="15" height="17" viewBox="0 0 15 17" fill="none" xmlns="http://www.w3.org/2000/svg">
<path d="M5.7959 12.4482C4.6915 12.448 3.7959 11.5527 3.7959 10.4482V4.5625H2C1.72386 4.5625 1.5 4.78636 1.5 5.0625V14.0625C1.50013 14.3385 1.72394 14.5625 2 14.5625H10C10.2761 14.5625 10.4999 14.3385 10.5 14.0625V12.4482H5.7959ZM5.7959 1.5C5.51992 1.5002 5.2959 1.72398 5.2959 2V10.4482C5.2959 10.7243 5.51992 10.948 5.7959 10.9482H13C13.276 10.948 13.5 10.7243 13.5 10.4482V2C13.5 1.72398 13.276 1.5002 13 1.5H5.7959ZM12 14.0625C11.9999 15.098 11.2127 15.9495 10.2041 16.0518L10 16.0625H2C0.964432 16.0625 0.113116 15.2752 0.0107422 14.2666L0 14.0625V5.0625C0 3.95793 0.895431 3.0625 2 3.0625H3.7959V2C3.7959 0.964473 4.58329 0.113172 5.5918 0.0107422L5.7959 0H13L13.2041 0.0107422C14.2126 0.113172 15 0.964474 15 2V10.4482L14.9893 10.6533C14.8935 11.5945 14.1453 12.3429 13.2041 12.4385L13 12.4482H12V14.0625Z" fill="#1C66E5"/>
</svg>
