<svg width="16" height="16" viewBox="0 0 16 16" fill="none" xmlns="http://www.w3.org/2000/svg">
<path d="M13.25 2.75V14C13.25 14.6904 12.6904 15.25 12 15.25H4C3.30964 15.25 2.75 14.6904 2.75 14V2.75H13.25Z" stroke="#1C66E5" stroke-width="1.5"/>
<rect x="5" width="6.69826" height="1.5" rx="0.75" fill="#147AFF"/>
<rect y="2" width="16" height="1.5" rx="0.75" fill="#147AFF"/>
<path d="M6.25 6.49023C6.66421 6.49023 7 6.82602 7 7.24023V11.7402C7 12.1544 6.66421 12.4902 6.25 12.4902C5.83579 12.4902 5.5 12.1544 5.5 11.7402V7.24023C5.5 6.82602 5.83579 6.49023 6.25 6.49023ZM9.75 6.49023C10.1642 6.49023 10.5 6.82602 10.5 7.24023V11.7402C10.5 12.1544 10.1642 12.4902 9.75 12.4902C9.33579 12.4902 9 12.1544 9 11.7402V7.24023C9 6.82602 9.33579 6.49023 9.75 6.49023Z" fill="#147AFF"/>
</svg>
