<svg width="24" height="24" viewBox="0 0 24 24" fill="none" xmlns="http://www.w3.org/2000/svg">
<path d="M18.501 20.7695C18.5123 20.8687 18.5366 20.9615 18.5674 21.0459C18.5483 21.055 18.5293 21.064 18.5098 21.0723C18.492 20.9668 18.4896 20.8654 18.501 20.7695ZM5.80762 3.91113C5.99527 3.72338 6.28495 3.69993 6.49805 3.84082L6.58398 3.91113L9.65332 6.98145C9.84087 7.16934 9.8644 7.4595 9.72363 7.67285L9.65332 7.75879L8.29297 9.11914L7.91992 9.49316L8.14648 9.97168C8.69279 11.1221 9.42965 12.1816 10.334 13.1016L10.7314 13.4863C11.936 14.5992 13.3534 15.4323 14.8818 15.9443L15.3223 16.0918L15.6504 15.7627L16.8945 14.5186C17.082 14.3314 17.3711 14.3079 17.584 14.4482L17.6709 14.5186L20.4912 17.3418C20.679 17.5298 20.7026 17.8198 20.5615 18.0332L20.4912 18.1191L20.4834 18.127L18.4355 20.2363C18.36 20.3119 18.2685 20.369 18.168 20.4023L18.0645 20.4277L17.9355 20.4482C14.4029 20.4034 11.3228 19.1174 8.63477 16.8174L8.09863 16.3408C5.23264 13.693 3.46565 10.6779 3.15332 6.87793C3.15927 6.59205 3.26828 6.31941 3.45898 6.10938L3.54785 6.02051L3.875 5.72949L3.89062 5.71582L5.79102 3.92676L5.7998 3.91895L5.80762 3.91113ZM19.0508 20.0215C19.0521 20.0217 19.053 20.0237 19.0547 20.0244C19.0425 20.022 19.0338 20.02 19.0293 20.0195C19.0365 20.0202 19.0444 20.0208 19.0508 20.0215Z" stroke="black" stroke-opacity="0.55" stroke-width="1.5"/>
</svg>
